# xmcd
#
# Track frame offsets:
#	150
#	20223
#	37001
#	57936
#	79359
#	101673
#	123163
#	145221
#	162865
#	183891
#	200216
#	215032
#
# Disc length: 3150 seconds
#
# Revision: 13
# Processed by: cddbd v1.5.2PL0 Copyright (c) Steve Scherf et al.
# Submitted via: Jack! The Knife 20 Magnifico
#
DISCID=b40c4c0c
DTITLE=Fight - War Of Words
DYEAR=1993
DGENRE=Heavy Metal
TTITLE0=Into The Pit
TTITLE1=Nailed To The Gun
TTITLE2=Life In Black
TTITLE3=Immortal Sin
TTITLE4=War Of Words
TTITLE5=Laid To Rest
TTITLE6=For All Eternity
TTITLE7=Little Crazy
TTITLE8=Contortion
TTITLE9=Kill It
TTITLE10=Vicious
TTITLE11=Reality, A New Beginning
EXTD=Rob Halford and Attie Bauw
EXTT0=Rob Halford
EXTT1=Rob Halford
EXTT2=Rob Halford
EXTT3=Rob Halford
EXTT4=Rob Halford
EXTT5=Rob Halford
EXTT6=Rob Halford
EXTT7=Rob Halford
EXTT8=Rob Halford
EXTT9=Rob Halford
EXTT10=Rob Halford
EXTT11=Rob Halford
PLAYORDER=
